<svg width="22" height="22" fill="none" xmlns="http://www.w3.org/2000/svg"><path fill-rule="evenodd" clip-rule="evenodd" d="M18.44 3.552A10.413 10.413 0 0011.044.5C5.28.5.59 5.168.588 10.905a10.349 10.349 0 001.395 5.203L.5 21.5l5.543-1.447a10.484 10.484 0 004.997 1.267h.004c5.763 0 10.454-4.669 10.456-10.406a10.317 10.317 0 00-3.06-7.362zm-7.396 16.01h-.004a8.711 8.711 0 01-4.423-1.206L6.3 18.17l-3.29.859.878-3.192-.206-.327a8.597 8.597 0 01-1.329-4.603c.002-4.769 3.9-8.648 8.694-8.648a8.65 8.65 0 016.145 2.536 8.577 8.577 0 012.543 6.119c-.002 4.77-3.9 8.65-8.691 8.65zm4.767-6.478c-.261-.13-1.546-.759-1.785-.846-.24-.086-.414-.13-.588.13s-.675.847-.827 1.02c-.153.174-.305.195-.566.065-.262-.13-1.104-.405-2.101-1.29-.777-.69-1.301-1.541-1.454-1.802-.152-.26-.001-.387.115-.53.283-.35.566-.716.653-.89.087-.173.043-.325-.022-.455s-.588-1.41-.805-1.93c-.213-.508-.428-.44-.588-.447a9.936 9.936 0 00-.501-.01.962.962 0 00-.697.326c-.24.26-.914.89-.914 2.17 0 1.28.936 2.515 1.067 2.689.13.174 1.842 2.8 4.463 3.926.623.268 1.11.428 1.49.548.625.198 1.195.17 1.645.103.502-.075 1.545-.63 1.763-1.237.218-.607.218-1.127.153-1.236-.066-.108-.24-.173-.501-.304z" fill="#B6CBBC"/></svg>