<svg width="120" height="120" viewBox="0 0 120 120" fill="none" xmlns="http://www.w3.org/2000/svg">
<path d="M81.5616 10C87.5515 13.9959 92.1775 19.8494 94.7506 26.6349C88.3765 23.0795 83.6019 17.08 81.5616 10Z" fill="#3D3316"/>
<path d="M85.9362 24.5078C92.3963 27.6621 97.7478 32.8412 101.186 39.2205C94.4033 36.5543 88.8855 31.2505 85.9362 24.5078Z" fill="#3D3316"/>
<path d="M97.2223 38.8058C101.574 44.5837 104.033 51.658 104.25 58.9245C99.3927 53.4336 96.8411 46.1717 97.2223 38.8058Z" fill="#3D3316"/>
<path d="M99.4914 56.0993C100.852 63.2369 99.9488 70.6816 96.954 77.2869C95.0142 70.1779 95.9168 62.5235 99.4914 56.0993Z" fill="#3D3316"/>
<path d="M93.4622 72.7638C92.1785 79.9161 88.6749 86.5225 83.5222 91.5779C84.256 84.2395 87.8339 77.4374 93.4622 72.7638Z" fill="#3D3316"/>
<path d="M80.4064 85.4494C76.4138 91.4879 70.6008 96.1276 63.8862 98.6778C67.4477 92.2461 73.406 87.4571 80.4064 85.4494Z" fill="#3D3316"/>
<path d="M96.1173 97.8662C89.2012 99.7846 81.811 99.4375 75.0873 96.9122C81.9311 94.4105 89.5275 94.741 96.1173 97.8662Z" fill="#3D3316"/>
<path d="M85.4221 104.412C78.3264 105.458 71.0337 104.196 64.6654 100.855C71.7598 99.2219 79.2592 100.493 85.4221 104.412Z" fill="#3D3316"/>
<path d="M118 59.8321C114.111 65.9399 108.379 70.6812 101.709 73.3492C105.16 66.8558 111.035 61.9627 118 59.8321Z" fill="#3D3316"/>
<path d="M110.982 73.9672C106.328 79.4979 100.026 83.4259 93.0656 85.173C97.3358 79.2013 103.8 75.1419 110.982 73.9672Z" fill="#3D3316"/>
<path d="M107.265 87.6085C100.959 91.0682 93.6841 92.4307 86.5705 91.5184C92.6757 87.5073 100.148 86.0811 107.265 87.6085Z" fill="#3D3316"/>
<path d="M115.241 46.0313C113.613 53.1112 109.794 59.5355 104.404 64.3288C105.491 57.0356 109.394 50.4195 115.241 46.0313Z" fill="#3D3316"/>
<path d="M113.665 31.5251C113.487 38.7926 111.031 45.8683 106.71 51.6699C106.318 44.3046 108.817 37.0239 113.665 31.5251Z" fill="#3D3316"/>
<path d="M104.969 21.3943C107.06 28.3478 106.932 35.8475 104.638 42.7349C101.973 35.8715 102.079 28.1633 104.969 21.3943Z" fill="#3D3316"/>
<path d="M93.9827 10.6623C98.0979 16.6156 100.27 23.7859 100.194 31.0553C95.5619 25.3678 93.3051 18.0063 93.9827 10.6623Z" fill="#3D3316"/>
<path d="M65.2431 110C66.6429 110 67.7776 108.849 67.7776 107.43C67.7776 106.011 66.6429 104.86 65.2431 104.86C63.8432 104.86 62.7085 106.011 62.7085 107.43C62.7085 108.849 63.8432 110 65.2431 110Z" fill="#3D3316"/>
<path d="M39.4383 10C33.4483 13.9959 28.8223 19.8494 26.2492 26.6349C32.6233 23.0795 37.3979 17.08 39.4383 10Z" fill="#3D3316"/>
<path d="M35.0634 24.5078C28.6032 27.6621 23.2518 32.8412 19.8131 39.2205C26.5963 36.5543 32.1141 31.2505 35.0634 24.5078Z" fill="#3D3316"/>
<path d="M23.7773 38.8058C19.4257 44.5837 16.9668 51.658 16.7492 58.9245C21.6069 53.4336 24.1584 46.1717 23.7773 38.8058Z" fill="#3D3316"/>
<path d="M21.5084 56.0993C20.1477 63.2369 21.051 70.6816 24.0458 77.2869C25.9857 70.1779 25.083 62.5235 21.5084 56.0993Z" fill="#3D3316"/>
<path d="M27.5373 72.7643C28.8211 79.9166 32.3246 86.523 37.4773 91.5784C36.7436 84.24 33.1657 77.4379 27.5373 72.7643Z" fill="#3D3316"/>
<path d="M40.5934 85.4494C44.586 91.4879 50.399 96.1276 57.1136 98.6778C53.5521 92.2461 47.5938 87.4571 40.5934 85.4494Z" fill="#3D3316"/>
<path d="M24.8825 97.8662C31.7986 99.7846 39.1888 99.4375 45.9125 96.9122C39.0687 94.4105 31.4723 94.741 24.8825 97.8662Z" fill="#3D3316"/>
<path d="M35.5775 104.412C42.6732 105.458 49.9659 104.196 56.3341 100.855C49.2397 99.2219 41.7403 100.493 35.5775 104.412Z" fill="#3D3316"/>
<path d="M2.99988 59.8321C6.88848 65.9399 12.6212 70.6812 19.2911 73.3492C15.8402 66.8558 9.96482 61.9627 2.99988 59.8321Z" fill="#3D3316"/>
<path d="M10.018 73.9672C14.6716 79.4979 20.9741 83.4259 27.9342 85.173C23.664 79.2013 17.2002 75.1419 10.018 73.9672Z" fill="#3D3316"/>
<path d="M13.7345 87.6085C20.0407 91.0682 27.3158 92.4307 34.4293 91.5184C28.3241 87.5073 20.8519 86.0811 13.7345 87.6085Z" fill="#3D3316"/>
<path d="M5.75867 46.0313C7.38663 53.1112 11.2053 59.5355 16.5962 64.3288C15.5086 57.0356 11.6062 50.4195 5.75867 46.0313Z" fill="#3D3316"/>
<path d="M7.33414 31.5251C7.51306 38.7926 9.96831 45.8683 14.2892 51.6699C14.682 44.3046 12.1831 37.0239 7.33414 31.5251Z" fill="#3D3316"/>
<path d="M16.0311 21.3943C13.9393 28.3478 14.0673 35.8475 16.3621 42.7349C19.0269 35.8715 18.9212 28.1633 16.0311 21.3943Z" fill="#3D3316"/>
<path d="M27.0171 10.6623C22.9019 16.6156 20.7301 23.7859 20.8056 31.0553C25.4379 25.3678 27.6947 18.0063 27.0171 10.6623Z" fill="#3D3316"/>
<path d="M55.7565 110C54.3567 110 53.2219 108.849 53.2219 107.43C53.2219 106.011 54.3567 104.86 55.7565 104.86C57.1563 104.86 58.2911 106.011 58.2911 107.43C58.2911 108.849 57.1563 110 55.7565 110Z" fill="#3D3316"/>
</svg>
