<svg width="97" height="87" viewBox="0 0 97 87" fill="none" xmlns="http://www.w3.org/2000/svg">
<path d="M95 86.5H95.5V86V46.2105V45.7105H95H75.7637V40.9857C75.7637 33.8224 77.3589 28.2143 80.5443 24.0577C83.7266 19.9053 88.5422 17.1411 95.1035 15.7523L95.6368 15.6394L95.4784 15.1179L91.4506 1.85471L91.3269 1.44745L90.9052 1.50451C78.9339 3.12423 69.9413 7.58932 63.9495 14.999C57.9629 22.4024 55.0275 32.6771 55.0275 45.8086V86V86.5H55.5275H95ZM40.4725 86.5H40.9725V86V46.2105V45.7105H40.4725H21.2362V40.9857C21.2362 33.8224 22.8314 28.2143 26.0168 24.0577C29.1991 19.9053 34.0147 17.1411 40.576 15.7523L41.1093 15.6394L40.9509 15.1179L36.9231 1.85471L36.7994 1.44745L36.3777 1.50451C24.4064 3.12423 15.4138 7.58932 9.42203 14.999C3.43538 22.4024 0.5 32.6771 0.5 45.8086V86V86.5H1H40.4725Z" stroke="#D8B64E"/>
</svg>
