<svg width="120" height="120" viewBox="0 0 120 120" fill="none" xmlns="http://www.w3.org/2000/svg">
<path fill-rule="evenodd" clip-rule="evenodd" d="M6 15H114L111.691 18.4642C108.863 18.7871 106.09 19.6939 103.562 21.1875C106.115 22.361 108.823 23.0816 111.568 23.3519L114 27H6L8.46845 23.2973C11.0496 22.9914 13.5932 22.2874 16 21.1875C13.6146 19.7859 11.0119 18.8989 8.35248 18.5287L6 15ZM23.5951 23.1848C22.1634 23.1848 21.0027 22.0241 21.0027 20.5924C21.0027 19.1607 22.1634 18 23.5951 18C25.0268 18 26.1875 19.1607 26.1875 20.5924C26.1875 22.0241 25.0268 23.1848 23.5951 23.1848ZM57.1902 20.5924C57.1902 22.0241 58.3509 23.1848 59.7826 23.1848C61.2143 23.1848 62.375 22.0241 62.375 20.5924C62.375 19.1607 61.2143 18 59.7826 18C58.3509 18 57.1902 19.1607 57.1902 20.5924ZM95.9701 23.1848C94.5384 23.1848 93.3777 22.0241 93.3777 20.5924C93.3777 19.1607 94.5384 18 95.9701 18C97.4018 18 98.5625 19.1607 98.5625 20.5924C98.5625 22.0241 97.4018 23.1848 95.9701 23.1848ZM67.375 21.1875C74.022 24.243 81.7212 24.2282 88.375 21.1875C81.9049 17.3859 73.8353 17.3693 67.375 21.1875ZM31.1875 21.1875C37.8345 24.243 45.5337 24.2282 52.1875 21.1875C45.7174 17.3859 37.6478 17.3693 31.1875 21.1875Z" fill="#3D3316"/>
<path d="M91.3534 31H28.8142C24.0174 31 19.2334 31.493 14.5374 32.4714L12 33L14.5374 33.5286C19.2334 34.507 24.0175 35 28.8142 35H91.3534C96.6097 35 101.849 34.408 106.973 33.2351L108 33L106.973 32.7649C101.849 31.592 96.6097 31 91.3534 31Z" fill="#3D3316"/>
<path d="M22 39H98C98 39 92.0228 41 92.0228 53.5V106H89V54.5C89 49 88 47 85 44C82 47 81 49 81 54.5V106H79V54.5C79 49 78 47 75 44C72 47 71 49 71 54.5V106H69V54.5C69 49 68 47 65 44C62 47 61 49 61 54.5V106H59V54.5C59 49 58 47 55 44C52 47 51 49 51 54.5V106H49V54.5C49 49 48 47 45 44C42 47 41 49 41 54.5V106H39V54.5C39 49 38 47 35 44C32 47 31 49 31 54.5V106H27.9772V53.5C27.9772 41 22 39 22 39Z" fill="#3D3316"/>
</svg>
