<svg width="120" height="120" viewBox="0 0 120 120" fill="none" xmlns="http://www.w3.org/2000/svg">
<path fill-rule="evenodd" clip-rule="evenodd" d="M19.9423 14.6071C19.6903 15.4416 19.6903 16.3427 19.9423 17.1438L20.3023 17.0437C20.1943 15.4749 21.0944 14.0731 22.3185 13.2053C22.9305 12.7714 23.6146 12.4377 24.3347 12.2708C25.0547 12.0705 25.7388 12.0705 26.4588 12.1706C27.8629 12.4043 29.1951 13.0718 30.2031 14.0397C30.7072 14.507 31.1752 15.041 31.5352 15.6085C31.8953 16.1759 32.1833 16.81 32.3993 17.4442C33.2994 20.0476 33.1914 23.0181 32.7953 26.022C32.6926 26.801 32.5657 27.5755 32.4165 28.3461H28.6014L20.7817 29.3419L28.6014 30.3377H31.9802C31.609 31.8594 31.1557 33.3676 30.6352 34.8669C30.1311 36.3355 29.5911 37.7707 28.979 39.2059C28.403 40.6411 27.7549 42.0763 27.0709 43.5115C25.8936 45.9816 24.6629 48.427 23.4019 50.9328C23.1975 51.3389 22.9924 51.7465 22.7865 52.1561C21.3104 55.0599 19.8703 58.0638 18.5742 61.1679C17.2421 64.2719 16.09 67.5429 15.2979 70.9139C14.4698 74.285 13.9658 77.8229 14.0018 81.4276C14.0378 83.23 14.1818 85.0323 14.4338 86.8347C14.7219 88.637 15.1899 90.5061 15.874 92.2751C17.2061 95.8131 19.1862 99.1841 21.9225 102.121C23.2906 103.59 24.8747 104.925 26.6028 106.06C27.4669 106.627 28.403 107.161 29.3391 107.628C29.4662 107.687 29.5911 107.746 29.7148 107.805C30.0815 107.978 30.4383 108.146 30.8152 108.296L32.3633 108.863C36.5757 110.198 41.004 110.332 45.1804 109.397C47.2685 108.897 49.2847 108.129 51.1208 107.061C52.957 105.993 54.6131 104.625 55.9452 103.022C57.2413 101.42 58.2134 99.5513 58.7175 97.6154C58.9695 96.6141 59.1135 95.6128 59.1135 94.6115C59.1135 93.6102 58.9695 92.5755 58.6455 91.6076C58.5735 91.3739 58.5014 91.1403 58.3934 90.9067L58.0694 90.2057C58.0122 90.1129 57.9605 90.0198 57.9101 89.929C57.8338 89.7915 57.7601 89.6588 57.6734 89.5382C57.5294 89.3046 57.3854 89.1043 57.2413 88.904C56.6293 88.103 55.8372 87.4355 55.0092 86.9014C54.1451 86.3674 53.245 85.9669 52.2729 85.7666C51.3009 85.5664 50.3288 85.5664 49.4287 85.7666V86.1004C51.1208 86.5677 52.3449 87.569 53.137 88.7038C53.533 89.2712 53.8211 89.9055 54.0011 90.5063C54.0371 90.6731 54.0731 90.8399 54.1091 90.9734L54.1811 91.4407L54.2171 91.8746V92.3419C54.1811 92.9426 54.0371 93.5434 53.8571 94.1108C53.641 94.6782 53.389 95.2457 53.065 95.7797C52.741 96.3137 52.3809 96.8144 51.9489 97.2816L51.3009 97.9492C51.0488 98.1494 50.7968 98.3497 50.5808 98.55C48.6006 100.085 46.0804 100.953 43.4882 101.22C40.86 101.454 38.1958 101.087 35.8916 100.219C35.6396 100.085 35.3516 99.9518 35.0635 99.8517L34.1995 99.4178C33.6594 99.1174 33.0834 98.7836 32.5793 98.4165C31.5352 97.7155 30.5272 96.8477 29.6271 95.9132C27.8269 94.0441 26.4228 91.7077 25.4507 89.2044L25.1267 88.2699C25.0684 87.9995 24.9864 87.7509 24.8999 87.4888C24.8797 87.4274 24.8592 87.3653 24.8387 87.302L24.7846 87.1019C24.6233 86.5068 24.4678 85.9332 24.3707 85.3327C24.1186 83.9977 23.9386 82.6292 23.9026 81.2274C23.8666 79.8255 23.9386 78.4237 24.0466 76.9885C24.1546 75.5533 24.3707 74.1181 24.6587 72.6829C24.9107 71.2477 25.2707 69.7791 25.7028 68.3439C26.1348 66.8753 26.6028 65.4401 27.1069 63.9715C27.9171 61.6376 28.8669 59.2822 29.8254 56.9052L29.8263 56.903C30.06 56.3233 30.2943 55.7423 30.5272 55.16C30.8605 54.3267 31.2023 53.4881 31.5462 52.6443C32.4283 50.4801 33.3245 48.2814 34.1275 46.0482C34.7035 44.4794 35.2435 42.9107 35.7476 41.3086C36.2516 39.7066 36.6837 38.0711 37.0437 36.4356C37.4397 34.7668 37.7638 33.1313 37.9438 31.4291C37.9899 31.0653 38.0312 30.7015 38.0675 30.3377H47.3485V79.1311H44.8422L40.8322 84.11H78.928L74.9179 79.1311H72.4116V30.3377H81.9325C81.9688 30.7015 82.0101 31.0653 82.0562 31.4291C82.2363 33.1313 82.5603 34.7668 82.9563 36.4356C83.3163 38.0711 83.7484 39.7066 84.2524 41.3086C84.7565 42.9107 85.2965 44.4794 85.8726 46.0482C86.6756 48.2815 87.5717 50.4802 88.4538 52.6444C88.7978 53.4882 89.1396 54.3267 89.4728 55.16C89.706 55.7431 89.9406 56.3249 90.1747 56.9054C91.1331 59.2821 92.083 61.6379 92.8931 63.9715C93.3972 65.4401 93.8652 66.8753 94.2972 68.3439C94.7293 69.7791 95.0893 71.2477 95.3413 72.6829C95.6293 74.1181 95.8454 75.5533 95.9534 76.9885C96.0614 78.4237 96.1334 79.8255 96.0974 81.2274C96.0614 82.6292 95.8814 83.9977 95.6293 85.3327C95.5322 85.9332 95.3768 86.5067 95.2155 87.1017L95.1613 87.302C95.1408 87.3653 95.1203 87.4274 95.1001 87.4887C95.0136 87.7509 94.9316 87.9994 94.8733 88.2699L94.5493 89.2044C93.5772 91.7077 92.1731 94.0441 90.3729 95.9132C89.4728 96.8477 88.4648 97.7155 87.4207 98.4165C86.9166 98.7836 86.3406 99.1174 85.8005 99.4178L84.9365 99.8517C84.6485 99.9518 84.3604 100.085 84.1084 100.219C81.8042 101.087 79.14 101.454 76.5118 101.22C73.9196 100.953 71.3994 100.085 69.4192 98.55C69.2032 98.3497 68.9512 98.1494 68.6992 97.9492L68.0511 97.2816C67.6191 96.8144 67.259 96.3137 66.935 95.7797C66.611 95.2457 66.359 94.6782 66.1429 94.1108C65.9629 93.5434 65.8189 92.9426 65.7829 92.3419V91.8746L65.8189 91.4407L65.8909 90.9734C65.9269 90.8399 65.9629 90.6731 65.9989 90.5063C66.1789 89.9055 66.467 89.2712 66.863 88.7038C67.6551 87.569 68.8792 86.5677 70.5713 86.1004V85.7666C69.6712 85.5664 68.6992 85.5664 67.7271 85.7666C66.755 85.9669 65.8549 86.3674 64.9908 86.9014C64.1628 87.4355 63.3707 88.103 62.7587 88.904C62.6147 89.1043 62.4706 89.3046 62.3266 89.5382C62.2399 89.6588 62.1662 89.7915 62.0899 89.929C62.0395 90.0198 61.9879 90.1129 61.9306 90.2057L61.6066 90.9067C61.4986 91.1403 61.4266 91.3739 61.3545 91.6076C61.0305 92.5755 60.8865 93.6102 60.8865 94.6115C60.8865 95.6128 61.0305 96.6141 61.2825 97.6154C61.7866 99.5513 62.7587 101.42 64.0548 103.022C65.3869 104.625 67.043 105.993 68.8792 107.061C70.7153 108.129 72.7315 108.897 74.8196 109.397C78.996 110.332 83.4243 110.198 87.6367 108.863L89.1848 108.296C89.5617 108.146 89.9185 107.978 90.2852 107.805L90.4419 107.731C90.5143 107.697 90.5872 107.663 90.6609 107.628C91.597 107.161 92.5331 106.627 93.3972 106.06C95.1253 104.925 96.7094 103.59 98.0775 102.121C100.814 99.1841 102.794 95.8131 104.126 92.2751C104.81 90.5061 105.278 88.637 105.566 86.8347C105.818 85.0323 105.962 83.23 105.998 81.4276C106.034 77.8229 105.53 74.285 104.702 70.9139C103.91 67.5429 102.758 64.2719 101.426 61.1679C100.13 58.0638 98.6896 55.0599 97.2135 52.1561C97.0077 51.7467 96.8027 51.3392 96.5984 50.9334L96.597 50.9306L96.5957 50.928C95.3355 48.4239 94.1057 45.98 92.9291 43.5115C92.2451 42.0763 91.597 40.6411 91.021 39.2059C90.4089 37.7707 89.8689 36.3355 89.3648 34.8669C88.8443 33.3676 88.391 31.8594 88.0198 30.3377H91.8617L98.9784 29.3419L91.8617 28.3461H87.5835C87.4343 27.5755 87.3074 26.801 87.2047 26.022C86.8086 23.0181 86.7006 20.0476 87.6007 17.4442C87.8167 16.81 88.1047 16.1759 88.4648 15.6085C88.8248 15.041 89.2928 14.507 89.7969 14.0397C90.805 13.0718 92.1371 12.4043 93.5412 12.1706C94.2612 12.0705 94.9453 12.0705 95.6654 12.2708C96.3854 12.4377 97.0695 12.7714 97.6815 13.2053C98.9056 14.0731 99.8057 15.4749 99.6977 17.0437L100.058 17.1438C100.31 16.3427 100.31 15.4416 100.058 14.6071C99.8057 13.7727 99.3377 12.9717 98.6896 12.3041C98.0775 11.6366 97.2855 11.0358 96.3854 10.6353C95.4853 10.2348 94.4412 10.0011 93.4332 10.0011C91.381 9.96777 89.4008 10.6687 87.7447 11.7367C86.9166 12.2708 86.1606 12.9383 85.5125 13.6392C84.8645 14.3735 84.3244 15.1746 83.8564 16.009C82.9563 17.6778 82.4523 19.4468 82.1282 21.1824C81.8402 22.918 81.7322 24.6536 81.7322 26.3224C81.7322 26.997 81.7492 27.6716 81.7831 28.3461H38.2169C38.2508 27.6716 38.2678 26.997 38.2678 26.3224C38.2678 24.6536 38.1598 22.918 37.8718 21.1824C37.5477 19.4468 37.0437 17.6778 36.1436 16.009C35.6756 15.1746 35.1355 14.3735 34.4875 13.6392C33.8394 12.9383 33.0834 12.2708 32.2553 11.7367C30.5992 10.6687 28.619 9.96777 26.5668 10.0011C25.5588 10.0011 24.5147 10.2348 23.6146 10.6353C22.7145 11.0358 21.9225 11.6366 21.3104 12.3041C20.6624 12.9717 20.1943 13.7727 19.9423 14.6071ZM20.7053 61.874C22.6751 67.2965 22.8723 73.2411 21.2934 78.7883C18.8641 73.4604 18.6404 67.3515 20.7053 61.874ZM17.0232 77.7511C20.7702 82.1533 23.0386 87.6579 23.5025 93.4042C19.3578 89.2495 17.0072 83.6 17.0232 77.7511ZM19.1961 93.7469C24.5833 95.8912 29.1845 99.6977 32.3059 104.558C26.6841 102.817 21.9418 98.921 19.1961 93.7469ZM37.8829 108.193C39.3183 108.193 40.4819 107.037 40.4819 105.611C40.4819 104.186 39.3183 103.03 37.8829 103.03C36.4476 103.03 35.284 104.186 35.284 105.611C35.284 107.037 36.4476 108.193 37.8829 108.193ZM47.0871 104.599C47.0871 105.699 46.1895 106.591 45.0821 106.591C43.9747 106.591 43.0771 105.699 43.0771 104.599C43.0771 103.499 43.9747 102.608 45.0821 102.608C46.1895 102.608 47.0871 103.499 47.0871 104.599ZM25.0317 59.7892C26.139 59.7892 27.0367 58.8975 27.0367 57.7976C27.0367 56.6977 26.139 55.806 25.0317 55.806C23.9243 55.806 23.0266 56.6977 23.0266 57.7976C23.0266 58.8975 23.9243 59.7892 25.0317 59.7892ZM29.0417 52.3208C29.0417 53.1457 28.3685 53.8145 27.538 53.8145C26.7074 53.8145 26.0342 53.1457 26.0342 52.3208C26.0342 51.4958 26.7074 50.8271 27.538 50.8271C28.3685 50.8271 29.0417 51.4958 29.0417 52.3208ZM99.2947 61.874C97.3249 67.2965 97.1277 73.2411 98.7066 78.7883C101.136 73.4604 101.36 67.3515 99.2947 61.874ZM102.977 77.7511C99.2298 82.1533 96.9614 87.6579 96.4975 93.4042C100.642 89.2495 102.993 83.6 102.977 77.7511ZM100.804 93.7469C95.4167 95.8912 90.8155 99.6977 87.6941 104.558C93.3159 102.817 98.0582 98.921 100.804 93.7469ZM82.1171 108.192C80.6817 108.192 79.5181 107.037 79.5181 105.611C79.5181 104.185 80.6817 103.029 82.1171 103.029C83.5524 103.029 84.716 104.185 84.716 105.611C84.716 107.037 83.5524 108.192 82.1171 108.192ZM72.9129 104.599C72.9129 105.699 73.8106 106.591 74.9179 106.591C76.0253 106.591 76.9229 105.699 76.9229 104.599C76.9229 103.499 76.0253 102.608 74.9179 102.608C73.8106 102.608 72.9129 103.499 72.9129 104.599ZM94.9683 59.7892C93.861 59.7892 92.9633 58.8975 92.9633 57.7976C92.9633 56.6977 93.861 55.806 94.9683 55.806C96.0757 55.806 96.9734 56.6977 96.9734 57.7976C96.9734 58.8975 96.0757 59.7892 94.9683 59.7892ZM90.9583 52.3208C90.9583 53.1457 91.6315 53.8145 92.462 53.8145C93.2926 53.8145 93.9658 53.1457 93.9658 52.3208C93.9658 51.4958 93.2926 50.8271 92.462 50.8271C91.6315 50.8271 90.9583 51.4958 90.9583 52.3208ZM48.3511 79.1311V30.3377H53.3637V79.1311H48.3511ZM54.3662 79.1311V30.3377H59.3788V79.1311H54.3662ZM60.3813 79.1311V30.3377H65.3939V79.1311H60.3813ZM66.3965 79.1311V30.3377H71.4091V79.1311H66.3965Z" fill="#3D3316"/>
<path d="M51.5096 90.6746C51.5096 92.1003 50.346 93.256 48.9107 93.256C47.4753 93.256 46.3118 92.1003 46.3118 90.6746C46.3118 89.2489 47.4753 88.0931 48.9107 88.0931C50.346 88.0931 51.5096 89.2489 51.5096 90.6746Z" fill="#3D3316"/>
<path d="M68.4904 90.6746C68.4904 92.1003 69.654 93.256 71.0893 93.256C72.5247 93.256 73.6882 92.1003 73.6882 90.6746C73.6882 89.2489 72.5247 88.0931 71.0893 88.0931C69.654 88.0931 68.4904 89.2489 68.4904 90.6746Z" fill="#3D3316"/>
</svg>
