<?xml version="1.0" standalone="no"?>
<!DOCTYPE svg PUBLIC "-//W3C//DTD SVG 20010904//EN"
 "http://www.w3.org/TR/2001/REC-SVG-20010904/DTD/svg10.dtd">
<svg version="1.0" xmlns="http://www.w3.org/2000/svg"
 width="700.000000pt" height="700.000000pt" viewBox="0 0 700.000000 700.000000"
 preserveAspectRatio="xMidYMid meet">
<metadata>
Created by potrace 1.14, written by Peter Selinger 2001-2017
</metadata>
<g transform="translate(0.000000,700.000000) scale(0.100000,-0.100000)"
fill="#000000" stroke="none">
<path d="M2050 5836 c0 -8 16 -37 35 -66 92 -136 75 -290 -54 -501 -19 -31
-69 -92 -132 -163 -25 -28 -70 -78 -100 -111 -30 -33 -81 -91 -114 -129 -68
-79 -65 -75 -125 -141 -25 -28 -74 -84 -110 -124 -36 -41 -69 -79 -75 -85 -5
-6 -39 -45 -75 -86 -36 -41 -70 -79 -76 -85 -5 -5 -41 -46 -80 -90 -38 -44
-76 -87 -84 -95 -8 -8 -44 -49 -80 -90 -36 -41 -69 -80 -75 -86 -5 -6 -39 -44
-75 -85 -122 -140 -212 -222 -278 -254 l-62 -30 1 -77 1 -77 47 -6 c289 -34
485 -185 707 -542 84 -136 110 -185 315 -594 287 -572 408 -769 595 -968 143
-152 311 -257 478 -300 146 -37 378 -24 518 29 66 24 156 94 193 148 23 33 23
37 9 54 -15 16 -19 15 -61 -17 -66 -51 -131 -69 -223 -62 -159 11 -298 108
-452 317 -101 138 -167 254 -398 705 -233 453 -388 689 -590 899 -248 258
-543 408 -845 430 -33 3 -62 5 -64 5 -4 1 42 54 103 121 23 25 97 108 166 185
69 77 141 158 161 180 20 22 100 112 179 200 79 88 175 196 214 239 39 43 79
88 89 100 10 12 35 39 55 61 20 22 73 80 117 130 44 49 85 95 90 101 43 48
153 170 165 184 144 164 307 333 407 422 120 107 326 247 456 309 30 15 47 29
47 41 0 17 -24 18 -460 18 -388 0 -460 -2 -460 -14z"/>
<path d="M3653 5785 c0 -36 3 -66 6 -66 3 -1 267 -3 586 -4 558 -2 673 -6 760
-25 22 -5 55 -12 74 -15 53 -9 149 -44 229 -82 117 -56 225 -143 336 -272 57
-67 149 -220 224 -373 76 -156 77 -158 110 -158 l33 0 -6 48 c-6 50 -10 87
-25 197 -5 39 -12 90 -15 115 -3 25 -10 79 -16 120 -5 41 -12 92 -14 113 -7
51 -15 117 -20 147 -2 14 -9 68 -15 120 -6 52 -13 104 -15 115 -2 11 -4 35 -4
53 l-1 32 -1114 0 -1114 0 1 -65z"/>
<path d="M4289 3896 c-2 -2 -44 -7 -94 -10 -136 -10 -318 -38 -471 -72 l-70
-15 -1 -57 c-2 -83 -3 -83 59 -66 29 7 78 18 108 24 30 6 66 12 80 15 78 16
233 36 327 42 383 23 664 -23 928 -153 233 -115 402 -282 514 -509 49 -99 93
-225 105 -299 4 -21 8 -41 10 -45 8 -12 20 -168 20 -256 -1 -208 -28 -349
-102 -535 -164 -406 -549 -681 -1042 -744 -101 -13 -140 -16 -255 -16 -151 0
-251 6 -390 26 -22 3 -49 7 -60 9 -17 2 -95 16 -160 29 -20 4 -95 23 -126 32
-15 4 -17 -9 -16 -117 l1 -121 546 5 c300 2 556 7 570 10 14 3 59 8 100 11 41
3 84 8 95 10 11 2 54 9 95 16 138 22 371 82 445 114 16 8 59 26 95 40 224 93
421 243 553 420 155 210 236 484 232 791 -3 161 -10 223 -41 349 -77 310 -254
557 -534 744 -230 153 -549 263 -895 308 -27 3 -61 8 -75 10 -32 6 -546 15
-551 10z"/>
</g>
</svg>
