<svg width="643" height="501" viewBox="0 0 643 501" fill="none" xmlns="http://www.w3.org/2000/svg">
<path d="M344.679 494.922V497.79H229.524L0.359375 236.278L110.358 131.903C141.868 101.508 165.931 77.4212 181.972 59.643C194.576 44.7323 200.305 33.2625 200.305 24.6601C200.305 10.8963 189.42 4.01443 168.222 4.01443H145.879V0H311.45V4.01443H295.981C283.95 4.01443 270.201 8.02887 254.732 16.6312C239.836 24.0866 216.92 41.2913 187.128 66.5249L41.609 205.31L261.607 453.631C262.753 454.778 265.617 457.646 269.055 461.66C272.492 465.674 274.784 467.968 275.357 469.115C275.93 469.689 277.648 471.409 279.94 473.13C282.232 475.424 284.523 476.571 286.242 477.718C287.961 478.865 290.252 480.012 293.117 481.732C295.982 482.879 299.419 484.599 304.002 486.32C316.033 491.481 329.783 494.349 344.679 494.922Z" fill="url(#paint0_linear_290_6038)"/>
<path d="M378.478 10.3228C390.509 6.3084 409.415 4.58792 436.915 4.58792C533.737 4.58792 590.455 18.3517 606.497 45.3058L613.944 100.934H617.955L611.653 0H378.478V10.3228Z" fill="url(#paint1_linear_290_6038)"/>
<path d="M643.736 285.018C637.434 268.387 627.694 252.902 613.944 239.139C600.195 224.801 580.716 213.905 555.507 205.876C530.299 197.274 499.935 193.259 464.415 193.259C435.769 193.259 407.124 198.421 378.478 207.023V211.038C402.54 203.582 426.602 198.994 450.665 198.994C545.768 198.994 593.892 247.168 593.892 342.94C593.892 389.967 580.716 427.244 553.789 455.345C527.435 482.872 493.06 496.636 451.238 496.636C422.592 496.636 399.676 492.048 379.051 484.593V498.356C385.353 498.93 392.228 498.93 400.822 499.503C434.623 500.65 452.383 500.65 453.529 500.65C527.435 500.65 580.143 482.299 611.653 446.169C639.153 415.2 652.902 379.644 652.902 339.499C652.902 320.001 650.038 301.649 643.736 285.018Z" fill="url(#paint2_linear_290_6038)"/>
<defs>
<linearGradient id="paint0_linear_290_6038" x1="113.5" y1="167.5" x2="686.543" y2="386.001" gradientUnits="userSpaceOnUse">
<stop stop-color="#1C272E"/>
<stop offset="0.890625" stop-color="#10161E"/>
</linearGradient>
<linearGradient id="paint1_linear_290_6038" x1="113.5" y1="167.5" x2="686.543" y2="386.001" gradientUnits="userSpaceOnUse">
<stop stop-color="#1C272E"/>
<stop offset="0.890625" stop-color="#10161E"/>
</linearGradient>
<linearGradient id="paint2_linear_290_6038" x1="113.5" y1="167.5" x2="686.543" y2="386.001" gradientUnits="userSpaceOnUse">
<stop stop-color="#1C272E"/>
<stop offset="0.890625" stop-color="#10161E"/>
</linearGradient>
</defs>
</svg>
