<svg width="962" height="738" viewBox="0 0 962 738" fill="none" xmlns="http://www.w3.org/2000/svg">
<path d="M507.556 729.556V733.783H337.807L0 348.293L162.148 194.436C208.596 149.631 244.066 114.125 267.712 87.9187C286.292 65.939 294.737 49.0316 294.737 36.351C294.737 16.0621 278.691 5.91761 247.444 5.91761H214.508V0H458.573V5.91761H435.771C418.037 5.91761 397.768 11.8352 374.966 24.5158C353.009 35.5056 319.228 60.8668 275.313 98.0632L60.8053 302.643L385.1 668.69C386.789 670.38 391.012 674.607 396.079 680.525C401.146 686.442 404.524 689.824 405.369 691.515C406.213 692.36 408.747 694.896 412.125 697.432C415.503 700.814 418.881 702.505 421.415 704.195C423.948 705.886 427.326 707.577 431.549 710.113C435.771 711.804 440.839 714.34 447.595 716.876C465.33 724.484 485.598 728.711 507.556 729.556Z" fill="url(#paint0_linear_275_1401)"/>
<path d="M557.378 15.2167C575.113 9.2991 602.982 6.76298 643.519 6.76298C786.243 6.76298 869.85 27.0519 893.496 66.7844L904.475 148.786H910.387L901.097 0H557.378V15.2167Z" fill="url(#paint1_linear_275_1401)"/>
<path d="M948.39 420.14C939.1 395.624 924.744 372.799 904.475 352.51C884.207 331.376 855.493 315.314 818.334 303.478C781.175 290.798 736.416 284.88 684.056 284.88C641.83 284.88 599.604 292.489 557.378 305.169V311.087C592.848 300.097 628.318 293.334 663.787 293.334C803.977 293.334 874.917 364.345 874.917 505.523C874.917 574.843 855.493 629.792 815.801 671.216C776.953 711.793 726.282 732.082 664.632 732.082C622.406 732.082 588.625 725.319 558.223 714.33V734.618C567.512 735.464 577.646 735.464 590.314 736.309C640.141 738 666.321 738 668.01 738C776.953 738 854.649 710.948 901.097 657.69C941.634 612.039 961.902 559.626 961.902 500.45C961.902 471.708 957.68 444.656 948.39 420.14Z" fill="url(#paint2_linear_275_1401)"/>
<defs>
<linearGradient id="paint0_linear_275_1401" x1="573" y1="754" x2="309.341" y2="896.007" gradientUnits="userSpaceOnUse">
<stop stop-color="#131A23"/>
<stop offset="0.962125" stop-color="#1C272E"/>
</linearGradient>
<linearGradient id="paint1_linear_275_1401" x1="573" y1="754" x2="309.341" y2="896.007" gradientUnits="userSpaceOnUse">
<stop stop-color="#131A23"/>
<stop offset="0.962125" stop-color="#1C272E"/>
</linearGradient>
<linearGradient id="paint2_linear_275_1401" x1="573" y1="754" x2="309.341" y2="896.007" gradientUnits="userSpaceOnUse">
<stop stop-color="#131A23"/>
<stop offset="0.962125" stop-color="#1C272E"/>
</linearGradient>
</defs>
</svg>
