<svg width="155" height="44" viewBox="0 0 155 44" fill="none" xmlns="http://www.w3.org/2000/svg">
<path d="M37.0714 17.7878C33.8669 17.7878 31.3485 18.2225 29.1501 18.7161V19.9613C31.6615 19.3424 33.8669 19.033 36.0652 19.033C44.903 19.033 49.0014 24.3379 49.0014 30.6376C49.0014 36.8119 44.903 42.4334 35.9387 42.4334C33.8669 42.4334 31.3562 42.1239 29.1501 41.5055V43.6791H36.3782C45.3425 43.6791 54.3668 40.8718 54.3668 30.888C54.3668 21.5307 45.9686 17.7878 37.0714 17.7878Z" fill="white"/>
<path d="M29.1501 1.2452H38.9044C45.6555 1.2452 48.0552 4.67869 50.2606 9.66676H50.8944L49.6275 0H29.1501V1.2452Z" fill="white"/>
<path d="M26.2225 41.4964C25.9095 41.806 25.2762 42.432 24.0168 42.432C20.8648 42.432 18.6516 38.439 16.1926 33.5685C13.2864 27.8289 9.44131 21.1535 2.05664 20.903L15.6188 5.93123C17.3848 3.93452 20.0376 1.56199 22.8767 0.316851V0H14.3594V0.30945C15.6188 1.55465 15.6858 3.74294 13.4131 6.29964L2.11628 18.9062C1.43071 19.6946 0.722809 20.1219 0 20.3503V21.8387H0.0372416C4.70946 21.8387 7.16852 26.7678 9.82134 32.1317C12.6604 37.8716 15.82 43.9866 21.4981 43.9866C24.0243 43.9866 25.6041 43.3605 26.5504 41.806L26.2225 41.4964Z" fill="white"/>
<path d="M74.1768 12.3201H72.4858L66.2561 6.53622V12.3201H64.9298V0.162933H66.2561V5.57839L72.0908 0.162933H73.7153L67.4405 5.99837L74.1768 12.3201Z" fill="white"/>
<path d="M79.1096 12.3201H77.731L79.6983 8.51085L74.713 0.162933H76.1736L80.3837 7.19935L84.02 0.162933H85.3986L79.1096 12.3201Z" fill="white"/>
<path d="M91.1344 12.4808C88.8321 12.4808 87.2521 11.4198 86.395 9.2905L87.6097 8.64212C88.2583 10.4473 89.4208 11.3462 91.1195 11.3462C92.0586 11.3462 92.7737 11.1251 93.2584 10.6904C93.7425 10.2557 93.9884 9.68834 93.9884 8.99579C93.9884 8.23688 93.7425 7.65481 93.2507 7.23483C92.7589 6.82225 92.0212 6.60852 91.0375 6.60852H89.6441V5.52549H90.9259C91.8572 5.52549 92.5427 5.31176 92.9899 4.8771C93.4372 4.44238 93.6605 3.91927 93.6605 3.30771C93.6605 2.60777 93.4295 2.06985 92.9751 1.6941C92.513 1.31834 91.9095 1.13416 91.1569 1.13416C89.5176 1.13416 88.4223 1.99621 87.8782 3.72769L86.5815 3.22666C86.9539 2.18038 87.5355 1.37731 88.3177 0.832054C89.1077 0.279462 90.0468 0.00683594 91.1492 0.00683594C92.3716 0.00683594 93.3327 0.294204 94.0259 0.87628C94.719 1.45095 95.0689 2.23195 95.0689 3.21926C95.0689 4.54551 94.3983 5.4886 93.0493 6.04119C94.6145 6.5054 95.3967 7.48537 95.3967 8.98839C95.3967 10.0052 95.0243 10.8377 94.2718 11.5009C93.5263 12.1493 92.4755 12.4808 91.1344 12.4808Z" fill="white"/>
<path d="M105.512 12.3201V6.63201H98.8052V12.3201H97.4789V0.162933H98.8052V5.47526H105.512V0.162933H106.838V12.3201H105.512Z" fill="white"/>
<path d="M109.463 12.3201V0.162933H117.399V1.28286H110.797V5.51208H116.416V6.63201H110.797V11.1707H117.399V12.3201H109.463Z" fill="white"/>
<path d="M130.338 15.0757H129.093V12.3201H119.473V0.162933H120.799V11.2002H127.342V0.162933H128.668V11.2002H130.338V15.0757Z" fill="white"/>
<path d="M143.324 6.18828C143.324 8.05972 142.773 9.57014 141.67 10.7343C140.567 11.8984 139.159 12.4732 137.46 12.4732C135.746 12.4732 134.338 11.8911 133.235 10.7343C132.132 9.57755 131.58 8.05972 131.58 6.18828C131.58 4.36101 132.132 2.88007 133.242 1.73066C134.352 0.588588 135.761 0.013916 137.46 0.013916C139.159 0.013916 140.567 0.588588 141.67 1.73066C142.773 2.88007 143.324 4.36101 143.324 6.18828ZM137.452 1.21489C136.133 1.21489 135.053 1.6791 134.226 2.61478C133.398 3.55053 132.982 4.75891 132.982 6.23985C132.982 7.74293 133.398 8.95125 134.226 9.87966C135.053 10.808 136.133 11.2648 137.452 11.2648C138.772 11.2648 139.852 10.8006 140.679 9.87966C141.506 8.95865 141.923 7.74293 141.923 6.23985C141.923 4.75891 141.506 3.55053 140.672 2.61478C139.844 1.6791 138.764 1.21489 137.452 1.21489Z" fill="white"/>
<path d="M145.579 12.3201V0.162933H149.417C152.114 0.162933 153.463 1.11343 153.463 3.01435C153.463 4.38482 152.799 5.31316 151.466 5.79945C153.112 6.21203 153.94 7.24357 153.94 8.89401C153.94 10.0213 153.56 10.8686 152.792 11.4433C152.024 12.018 150.922 12.3128 149.468 12.3128H145.579V12.3201ZM152.069 3.30905C152.069 1.96806 151.227 1.2976 149.543 1.2976H146.905V5.39421H149.789C150.475 5.39421 151.026 5.20263 151.443 4.81948C151.868 4.43638 152.069 3.93535 152.069 3.30905ZM152.561 8.78348C152.561 8.00248 152.315 7.40566 151.831 6.99302C151.346 6.58044 150.646 6.36678 149.745 6.36678H146.912V11.1633H149.603C150.594 11.1633 151.339 10.9718 151.831 10.596C152.315 10.2203 152.561 9.61603 152.561 8.78348Z" fill="white"/>
<path d="M64.9381 28.8392V28.7581C65.184 28.4339 65.4299 27.8666 65.4299 27.2993V19.0398C65.4299 18.4725 65.184 17.9051 64.9381 17.5809V17.4999H71.9803L72.3082 20.0124H72.1443C71.5705 18.7156 70.9515 17.8241 69.1934 17.8241H66.6523V22.3554C67.2261 22.2227 67.8819 22.1123 68.7164 22.1123C71.0264 22.1123 73.2021 23.0848 73.2021 25.5163C73.2021 28.1098 70.8624 28.8392 68.5299 28.8392H64.9381ZM71.8164 25.4499C71.8164 23.8143 70.7508 22.4365 68.4557 22.4365C67.8819 22.4365 67.3081 22.5175 66.6523 22.6796V28.2645C67.2261 28.4266 67.8819 28.5076 68.4182 28.5076C70.7508 28.515 71.8164 27.0562 71.8164 25.4499Z" fill="white"/>
<path d="M74.354 28.837V28.7559C74.9278 28.4317 75.2408 27.9455 75.5016 27.2971L79.4361 17.4167H79.682L83.6313 27.3266C83.8921 28.0044 84.1083 28.3434 84.5181 28.7486V28.8296H82.0591V28.7486C82.305 28.5055 82.5657 27.9529 82.305 27.2897L81.3362 24.8583H76.8802L75.9114 27.2897C75.6507 27.9529 75.7475 28.4244 76.2393 28.7486V28.8296H74.354V28.837ZM76.9919 24.5415H81.2019L79.1082 19.2144L76.9919 24.5415Z" fill="white"/>
<path d="M86.5688 28.8389V28.7578C86.8148 28.4336 87.0607 27.8663 87.0607 27.2989V19.0394C87.0607 18.4721 86.8148 17.9047 86.5688 17.5806V17.4995H88.782V17.5806C88.5361 17.9047 88.2902 18.4721 88.2902 19.0394V26.7021L94.5121 19.0394C94.5121 18.4721 94.2662 17.9047 94.0203 17.5806V17.4995H96.2334V17.5806C95.9875 17.9047 95.7416 18.4721 95.7416 19.0394V27.2989C95.7416 27.8663 95.9875 28.4336 96.2334 28.7578V28.8389H94.0203V28.7578C94.2662 28.4336 94.5121 27.8663 94.5121 27.2989V19.6362L88.2902 27.2989C88.2902 27.8663 88.5361 28.4336 88.782 28.7578V28.8389H86.5688ZM88.9459 14.987C88.9459 14.5155 89.2215 14.2429 89.6985 14.2429C89.9593 14.2429 90.1903 14.3092 90.4065 14.486C90.2278 14.7144 90.1903 14.987 90.1903 15.186C90.1903 15.8491 90.5182 16.1733 91.405 16.1733C92.2918 16.1733 92.6197 15.8491 92.6197 15.186C92.6197 14.9944 92.59 14.7144 92.4035 14.486C92.6197 14.3092 92.843 14.2429 93.1115 14.2429C93.5885 14.2429 93.8641 14.5155 93.8641 14.987C93.8641 15.7165 93.1263 16.4459 91.405 16.4459C89.6837 16.4459 88.9459 15.7165 88.9459 14.987Z" fill="white"/>
<path d="M98.1268 31.919V28.515H98.2088C100.466 28.4487 101.465 22.8933 101.465 20.6239C101.465 18.9882 100.943 18.0451 100.251 17.5809V17.4999H107.62V17.5809C107.374 17.9051 107.129 18.4725 107.129 19.0398V28.515H108.522V31.919H108.276C108.112 30.2981 107.374 28.8392 105.571 28.8392H101.063C99.2595 28.8392 98.5218 30.2981 98.3579 31.919H98.1268ZM105.907 28.515V17.8241H101.957C101.972 18.1925 101.972 18.5682 101.972 19.2314C101.972 24.0058 100.809 26.7761 99.6771 28.515H105.907Z" fill="white"/>
<path d="M109.595 28.837V28.7559C110.169 28.4317 110.482 27.9455 110.743 27.2971L114.678 17.4167H114.923L118.873 27.3266C119.134 28.0044 119.35 28.3434 119.76 28.7486V28.8296H117.301V28.7486C117.546 28.5055 117.807 27.9529 117.546 27.2897L116.578 24.8583H112.122L111.153 27.2897C110.892 27.9529 110.989 28.4244 111.481 28.7486V28.8296H109.595V28.837ZM112.233 24.5415H116.443L114.35 19.2144L112.233 24.5415Z" fill="white"/>
<path d="M121.807 28.8392V28.7581C122.053 28.4339 122.299 27.8666 122.299 27.2993V19.0398C122.299 18.4725 122.053 17.9051 121.807 17.5809V17.4999H125.414C127.545 17.4999 129.676 18.2293 129.676 20.8228C129.676 23.2543 127.709 24.2268 125.742 24.2268C125.086 24.2268 124.594 24.1458 124.02 23.9027V23.7406C124.676 23.9026 125.086 23.9027 125.414 23.9027C127.381 23.9027 128.365 22.5248 128.365 20.8228C128.365 19.2829 127.381 17.8241 125.414 17.8241C124.594 17.8241 124.102 17.9051 123.529 18.0672V27.2993C123.529 27.8666 123.775 28.4339 124.02 28.7581V28.8392H121.807Z" fill="white"/>
<path d="M132.047 28.8392V28.7581C132.293 28.4339 132.539 27.8666 132.539 27.2993V19.0398C132.539 18.4725 132.293 17.9051 132.047 17.5809V17.4999H134.26V17.5809C134.014 17.9051 133.768 18.4725 133.768 19.0398V26.7025L139.99 19.0398C139.99 18.4725 139.744 17.9051 139.498 17.5809V17.4999H141.711V17.5809C141.466 17.9051 141.22 18.4725 141.22 19.0398V27.2993C141.22 27.8666 141.466 28.4339 141.711 28.7581V28.8392H139.498V28.7581C139.744 28.4339 139.99 27.8666 139.99 27.2993V19.6366L133.768 27.2993C133.768 27.8666 134.014 28.4339 134.26 28.7581V28.8392H132.047Z" fill="white"/>
<path d="M149.907 25.8405C149.222 24.4479 148.581 23.1659 147.366 23.1659H146.711V27.2993C146.711 27.8666 146.956 28.4339 147.202 28.7581V28.8392H144.989V28.7581C145.235 28.4339 145.481 27.8666 145.481 27.2993V19.0398C145.481 18.4725 145.235 17.9051 144.989 17.5809V17.4999H147.202V17.5809C146.956 17.9051 146.711 18.4725 146.711 19.0398V22.849H146.927C147.27 22.849 147.597 22.768 147.91 22.4143L150.839 19.1429C151.428 18.4798 151.413 17.9125 151.085 17.5883V17.5072H153.298V17.5883C152.561 17.9125 151.875 18.5314 151.413 19.0471L147.889 22.9374C149.803 23.0038 150.802 24.7352 151.554 26.2235C152.195 27.4835 152.769 28.5224 153.589 28.5224C153.917 28.5224 154.081 28.3603 154.163 28.2792L154.245 28.3603C153.999 28.7655 153.589 28.9276 152.933 28.9276C151.465 28.9202 150.645 27.3287 149.907 25.8405Z" fill="white"/>
<path d="M110.376 41.9308H109.742V37.8063H110.376V41.1337L112.635 37.8063H113.268V41.9308H112.635V38.6034L110.376 41.9308Z" fill="white"/>
<path d="M117.11 41.9308H116.477V37.8063H119.822V41.9308H119.189V38.253H117.11V41.9308Z" fill="white"/>
<path d="M121.621 39.1468L121.044 38.9675C121.232 38.1359 121.816 37.723 122.79 37.723C123.325 37.723 123.722 37.8334 123.972 38.0466C124.229 38.2667 124.354 38.5967 124.354 39.0434V41.4219H125.049V41.9311H123.672L123.722 41.4085V40.8584L123.165 41.6835C122.894 41.8967 122.546 42.0064 122.129 42.0064C121.788 42.0064 121.517 41.9037 121.302 41.7039C121.086 41.5048 120.982 41.2298 120.982 40.8724C120.982 40.5559 121.086 40.3012 121.302 40.1225C121.51 39.9439 121.754 39.8271 122.025 39.7792C122.296 39.7307 122.602 39.6618 122.95 39.5724C123.297 39.4831 123.548 39.3733 123.722 39.2361V39.0638C123.722 38.4799 123.394 38.1908 122.748 38.1908C122.407 38.1908 122.157 38.2667 121.99 38.411C121.83 38.5622 121.705 38.8098 121.621 39.1468ZM121.663 40.7831C121.663 41.0166 121.733 41.2023 121.865 41.3325C121.997 41.4633 122.171 41.5252 122.38 41.5252C122.95 41.5252 123.401 41.1813 123.722 40.494V39.3529C123.596 39.5042 123.401 39.628 123.151 39.7377C122.901 39.8475 122.671 39.9234 122.456 39.9713C122.247 40.0198 122.06 40.1162 121.899 40.2464C121.739 40.3842 121.663 40.5629 121.663 40.7831Z" fill="white"/>
<path d="M128.234 42.0133C127.838 42.0133 127.504 41.8965 127.226 41.6559C126.948 41.4153 126.767 41.0713 126.677 40.6316V43.9999H126.045V37.8128H126.677V39.0981C126.775 38.6514 126.955 38.3144 127.226 38.0809C127.498 37.8473 127.832 37.7299 128.221 37.7299C128.708 37.7299 129.118 37.9156 129.459 38.28C129.799 38.6514 129.966 39.174 129.966 39.8613C129.966 40.5487 129.799 41.0783 129.459 41.4561C129.125 41.8276 128.715 42.0133 128.234 42.0133ZM129.264 39.8684C129.264 39.3253 129.139 38.906 128.895 38.6169C128.645 38.3285 128.339 38.1772 127.963 38.1772C127.581 38.1772 127.268 38.3214 127.039 38.6169C126.802 38.906 126.691 39.3253 126.691 39.8684C126.691 40.4115 126.809 40.8307 127.053 41.1332C127.296 41.4357 127.609 41.5799 128.005 41.5799C128.367 41.5799 128.666 41.4357 128.909 41.1402C129.146 40.8378 129.264 40.4185 129.264 39.8684Z" fill="white"/>
<path d="M132.806 41.9308H132.174V38.253H130.658V37.8063H134.33V38.253H132.813V41.9308H132.806Z" fill="white"/>
<path d="M135.861 41.9308H135.228V37.8063H135.861V39.6072H138.002V37.8063H138.635V41.9308H138.002V40.0475H135.861V41.9308Z" fill="white"/>
<path d="M143.641 40.3153C143.621 40.7486 143.44 41.1404 143.106 41.4908C142.773 41.8418 142.307 42.0134 141.715 42.0134C141.083 42.0134 140.589 41.8137 140.241 41.4219C139.894 41.03 139.713 40.5214 139.713 39.903C139.713 39.2565 139.894 38.7269 140.263 38.3286C140.631 37.9298 141.111 37.723 141.709 37.723C142.321 37.723 142.793 37.9087 143.127 38.2731C143.461 38.6375 143.635 39.1532 143.641 39.8067H140.429V39.9164C140.429 40.4321 140.541 40.8379 140.763 41.1264C140.985 41.4155 141.306 41.5597 141.722 41.5597C142.474 41.5597 142.891 41.1468 142.974 40.3153H143.641ZM141.709 38.1768C141.354 38.1768 141.069 38.2872 140.847 38.5137C140.631 38.7339 140.499 39.0708 140.443 39.5105H142.911C142.911 39.1398 142.814 38.8232 142.612 38.5692C142.418 38.3006 142.119 38.1768 141.709 38.1768Z" fill="white"/>
<path d="M146.909 42.0133C146.513 42.0133 146.179 41.8965 145.901 41.6559C145.623 41.4153 145.442 41.0713 145.352 40.6316V43.9999H144.719V37.8128H145.352V39.0981C145.449 38.6514 145.63 38.3144 145.901 38.0809C146.172 37.8473 146.506 37.7299 146.895 37.7299C147.382 37.7299 147.792 37.9156 148.133 38.28C148.474 38.6514 148.641 39.174 148.641 39.8613C148.641 40.5487 148.474 41.0783 148.133 41.4561C147.792 41.8276 147.389 42.0133 146.909 42.0133ZM147.931 39.8684C147.931 39.3253 147.806 38.906 147.563 38.6169C147.312 38.3285 147.006 38.1772 146.631 38.1772C146.249 38.1772 145.936 38.3214 145.706 38.6169C145.47 38.906 145.359 39.3253 145.359 39.8684C145.359 40.4115 145.477 40.8307 145.72 41.1332C145.963 41.4357 146.277 41.5799 146.673 41.5799C147.034 41.5799 147.333 41.4357 147.576 41.1402C147.813 40.8378 147.931 40.4185 147.931 39.8684Z" fill="white"/>
<path d="M152.865 40.5632C152.865 40.9895 152.732 41.3194 152.468 41.5664C152.204 41.814 151.78 41.9308 151.203 41.9308H149.715V37.8063H150.347V39.3251H151.279C151.738 39.3251 152.114 39.4285 152.413 39.6417C152.712 39.8548 152.865 40.1573 152.865 40.5632ZM152.225 40.5632C152.225 40.0335 151.863 39.7725 151.14 39.7725H150.347V41.4911H151.126C151.516 41.4911 151.794 41.4151 151.967 41.2709C152.142 41.1126 152.225 40.8791 152.225 40.5632ZM154.255 41.9308H153.622V37.8063H154.255V41.9308Z" fill="white"/>
</svg>
