<svg width="170" height="50" viewBox="0 0 170 50" fill="none" xmlns="http://www.w3.org/2000/svg">
<path d="M40.819 20.3664C37.2905 20.3664 34.5175 20.856 32.0969 21.4119V22.8141C34.8622 22.1172 37.2905 21.7687 39.711 21.7687C49.4422 21.7687 53.955 27.7426 53.955 34.8368C53.955 41.7898 49.4422 48.1203 39.5718 48.1203C37.2905 48.1203 34.526 47.7717 32.0969 47.0754V49.5231H40.0557C49.9262 49.5231 59.8628 46.3617 59.8628 35.1188C59.8628 24.5814 50.6155 20.3664 40.819 20.3664Z" fill="#111821"/>
<path d="M32.0969 1.73932H42.8373C50.2709 1.73932 52.9131 5.60582 55.3415 11.223H56.0394L54.6443 0.337082H32.0969V1.73932Z" fill="#111821"/>
<path d="M28.8733 47.0668C28.5287 47.4154 27.8314 48.1204 26.4447 48.1204C22.974 48.1204 20.5371 43.6238 17.8295 38.1391C14.6295 31.6756 10.3957 24.1583 2.26455 23.8762L17.1977 7.01632C19.1422 4.7678 22.0632 2.09606 25.1893 0.693892V0.337082H15.811V0.685558C17.1977 2.0878 17.2715 4.55206 14.769 7.4312L2.33021 21.6276C1.57534 22.5155 0.795878 22.9967 0 23.2539V24.9299H0.0410064C5.18554 24.9299 7.89319 30.4807 10.8142 36.5211C13.9403 42.9849 17.4192 49.871 23.6714 49.871C26.4529 49.871 28.1924 49.166 29.2344 47.4154L28.8733 47.0668Z" fill="#111821"/>
<path d="M81.6753 14.2103H79.8133L72.9539 7.69704V14.2103H71.4935V0.519981H72.9539V6.61841L79.3784 0.519981H81.1671L74.258 7.09135L81.6753 14.2103Z" fill="#111821"/>
<path d="M87.1069 14.2103H85.5889L87.755 9.92069L82.2658 0.519981H83.874L88.5097 8.44379L92.5136 0.519981H94.0316L87.1069 14.2103Z" fill="#111821"/>
<path d="M100.347 14.3926C97.8122 14.3926 96.0725 13.1978 95.1287 10.7999L96.4662 10.0698C97.1804 12.1025 98.4603 13.1148 100.331 13.1148C101.365 13.1148 102.152 12.8659 102.686 12.3764C103.219 11.8868 103.49 11.2479 103.49 10.468C103.49 9.61341 103.219 8.95793 102.677 8.48498C102.136 8.02037 101.324 7.7797 100.241 7.7797H98.7062V6.56007H100.118C101.143 6.56007 101.898 6.31939 102.39 5.82992C102.883 5.34037 103.129 4.75129 103.129 4.0626C103.129 3.27438 102.874 2.66863 102.374 2.24549C101.865 1.82234 101.201 1.61494 100.372 1.61494C98.5669 1.61494 97.3609 2.5857 96.7618 4.53555L95.3341 3.97133C95.7441 2.7931 96.3845 1.88874 97.2458 1.27473C98.1156 0.652444 99.1497 0.345436 100.364 0.345436C101.71 0.345436 102.768 0.669046 103.531 1.32453C104.294 1.97168 104.679 2.85117 104.679 3.963C104.679 5.4565 103.941 6.51853 102.456 7.14081C104.179 7.66356 105.04 8.76713 105.04 10.4597C105.04 11.6047 104.63 12.5423 103.802 13.289C102.981 14.0192 101.824 14.3926 100.347 14.3926Z" fill="#111821"/>
<path d="M116.178 14.2103V7.80491H108.794V14.2103H107.333V0.519981H108.794V6.50227H116.178V0.519981H117.639V14.2103H116.178Z" fill="#111821"/>
<path d="M120.529 14.2103V0.519981H129.267V1.78115H121.997V6.54374H128.184V7.80491H121.997V12.916H129.267V14.2103H120.529Z" fill="#111821"/>
<path d="M143.514 17.3135H142.143V14.2103H131.551V0.519981H133.011V12.9492H140.215V0.519981H141.675V12.9492H143.514V17.3135Z" fill="#111821"/>
<path d="M157.813 7.30684C157.813 9.41429 157.205 11.1152 155.992 12.4262C154.777 13.7371 153.226 14.3844 151.356 14.3844C149.468 14.3844 147.918 13.7289 146.703 12.4262C145.489 11.1235 144.882 9.41429 144.882 7.30684C144.882 5.24911 145.489 3.58141 146.712 2.28704C147.934 1.00094 149.485 0.35379 151.356 0.35379C153.226 0.35379 154.777 1.00094 155.992 2.28704C157.205 3.58141 157.813 5.24911 157.813 7.30684ZM151.347 1.70623C149.895 1.70623 148.705 2.22897 147.795 3.28266C146.884 4.33643 146.425 5.6972 146.425 7.3649C146.425 9.05755 146.884 10.4182 147.795 11.4637C148.705 12.5092 149.895 13.0236 151.347 13.0236C152.8 13.0236 153.99 12.5008 154.9 11.4637C155.811 10.4266 156.27 9.05755 156.27 7.3649C156.27 5.6972 155.811 4.33643 154.892 3.28266C153.981 2.22897 152.791 1.70623 151.347 1.70623Z" fill="#111821"/>
<path d="M160.296 14.2103V0.519981H164.521C167.491 0.519981 168.976 1.59035 168.976 3.731C168.976 5.27431 168.246 6.31973 166.778 6.86735C168.591 7.33196 169.502 8.49359 169.502 10.3522C169.502 11.6216 169.083 12.5758 168.238 13.223C167.392 13.8701 166.178 14.2021 164.578 14.2021H160.296V14.2103ZM167.442 4.06287C167.442 2.55277 166.515 1.79775 164.661 1.79775H161.756V6.411H164.931C165.686 6.411 166.293 6.19526 166.753 5.76378C167.22 5.33238 167.442 4.76816 167.442 4.06287ZM167.984 10.2277C167.984 9.34822 167.713 8.67613 167.179 8.21145C166.646 7.74684 165.875 7.50623 164.882 7.50623H161.764V12.9077H164.726C165.817 12.9077 166.638 12.692 167.179 12.2688C167.713 11.8457 167.984 11.1653 167.984 10.2277Z" fill="#111821"/>
<path d="M71.5026 32.8123V32.721C71.7734 32.356 72.0441 31.7171 72.0441 31.0782V21.7771C72.0441 21.1382 71.7734 20.4993 71.5026 20.1342V20.043H79.2567L79.6177 22.8723H79.4372C78.8055 21.412 78.1239 20.4081 76.1881 20.4081H73.3902V25.5109C74.0219 25.3614 74.744 25.237 75.6629 25.237C78.2064 25.237 80.602 26.3323 80.602 29.0703C80.602 31.991 78.0258 32.8123 75.4575 32.8123H71.5026ZM79.0762 28.9956C79.0762 27.1537 77.9029 25.6021 75.3758 25.6021C74.744 25.6021 74.1122 25.6934 73.3902 25.8759V32.1652C74.0219 32.3477 74.744 32.439 75.3346 32.439C77.9029 32.4472 79.0762 30.8045 79.0762 28.9956Z" fill="#111821"/>
<path d="M81.8704 32.8126V32.7213C82.5022 32.3562 82.8469 31.8086 83.134 31.0784L87.4662 19.952H87.737L92.0856 31.1116C92.3727 31.875 92.6108 32.2567 93.0621 32.713V32.8043H90.3544V32.713C90.6252 32.4392 90.9123 31.8169 90.6252 31.0702L89.5585 28.3321H84.652L83.5853 31.0702C83.2982 31.8169 83.4048 32.3479 83.9463 32.713V32.8043H81.8704V32.8126ZM84.775 27.9753H89.4106L87.1052 21.9765L84.775 27.9753Z" fill="#111821"/>
<path d="M95.3201 32.8122V32.721C95.5909 32.3559 95.8617 31.717 95.8617 31.0781V21.777C95.8617 21.1381 95.5909 20.4992 95.3201 20.1341V20.0428H97.757V20.1341C97.4862 20.4992 97.2155 21.1381 97.2155 21.777V30.4061L104.066 21.777C104.066 21.1381 103.796 20.4992 103.525 20.1341V20.0428H105.962V20.1341C105.691 20.4992 105.42 21.1381 105.42 21.777V31.0781C105.42 31.717 105.691 32.3559 105.962 32.721V32.8122H103.525V32.721C103.796 32.3559 104.066 31.717 104.066 31.0781V22.449L97.2155 31.0781C97.2155 31.717 97.4862 32.3559 97.757 32.721V32.8122H95.3201ZM97.9375 17.2135C97.9375 16.6825 98.241 16.3755 98.7662 16.3755C99.0533 16.3755 99.3077 16.4502 99.5458 16.6493C99.3489 16.9065 99.3077 17.2135 99.3077 17.4375C99.3077 18.1843 99.6687 18.5493 100.645 18.5493C101.622 18.5493 101.983 18.1843 101.983 17.4375C101.983 17.2218 101.95 16.9065 101.745 16.6493C101.983 16.4502 102.229 16.3755 102.524 16.3755C103.049 16.3755 103.353 16.6825 103.353 17.2135C103.353 18.0349 102.541 18.8563 100.645 18.8563C98.7498 18.8563 97.9375 18.0349 97.9375 17.2135Z" fill="#111821"/>
<path d="M108.046 36.2806V32.4473H108.137C110.623 32.3726 111.722 26.1165 111.722 23.561C111.722 21.719 111.148 20.657 110.385 20.1342V20.043H118.5V20.1342C118.229 20.4993 117.958 21.1382 117.958 21.7771V32.4473H119.492V36.2806H119.222C119.041 34.4552 118.229 32.8124 116.243 32.8124H111.279C109.294 32.8124 108.481 34.4552 108.301 36.2806H108.046ZM116.613 32.4473V20.4081H112.263C112.281 20.8229 112.28 21.2461 112.28 21.9928C112.28 27.3694 111 30.4891 109.753 32.4473H116.613Z" fill="#111821"/>
<path d="M120.675 32.8126V32.7213C121.306 32.3562 121.651 31.8086 121.938 31.0784L126.27 19.952H126.541L130.89 31.1116C131.177 31.875 131.415 32.2567 131.866 32.713V32.8043H129.159V32.713C129.429 32.4392 129.716 31.8169 129.429 31.0702L128.363 28.3321H123.456L122.389 31.0702C122.102 31.8169 122.209 32.3479 122.75 32.713V32.8043H120.675V32.8126ZM123.579 27.9753H128.215L125.909 21.9765L123.579 27.9753Z" fill="#111821"/>
<path d="M134.121 32.8123V32.721C134.392 32.356 134.662 31.7171 134.662 31.0782V21.7771C134.662 21.1382 134.392 20.4993 134.121 20.1342V20.043H138.092C140.439 20.043 142.785 20.8644 142.785 23.785C142.785 26.5231 140.619 27.6183 138.453 27.6183C137.731 27.6183 137.189 27.527 136.558 27.2532V27.0707C137.28 27.2532 137.731 27.2532 138.092 27.2532C140.258 27.2532 141.341 25.7017 141.341 23.785C141.341 22.0509 140.258 20.4081 138.092 20.4081C137.189 20.4081 136.648 20.4993 136.016 20.6819V31.0782C136.016 31.7171 136.287 32.356 136.558 32.721V32.8123H134.121Z" fill="#111821"/>
<path d="M145.396 32.8123V32.721C145.666 32.356 145.937 31.7171 145.937 31.0782V21.7771C145.937 21.1382 145.666 20.4993 145.396 20.1342V20.043H147.832V20.1342C147.562 20.4993 147.291 21.1382 147.291 21.7771V30.4062L154.142 21.7771C154.142 21.1382 153.871 20.4993 153.6 20.1342V20.043H156.037V20.1342C155.766 20.4993 155.496 21.1382 155.496 21.7771V31.0782C155.496 31.7171 155.766 32.356 156.037 32.721V32.8123H153.6V32.721C153.871 32.356 154.142 31.7171 154.142 31.0782V22.4492L147.291 31.0782C147.291 31.7171 147.562 32.356 147.832 32.721V32.8123H145.396Z" fill="#111821"/>
<path d="M165.061 29.4354C164.307 27.8673 163.601 26.4235 162.264 26.4235H161.542V31.0783C161.542 31.7171 161.812 32.356 162.083 32.721V32.8124H159.646V32.721C159.917 32.356 160.188 31.7171 160.188 31.0783V21.7771C160.188 21.1382 159.917 20.4993 159.646 20.1342V20.043H162.083V20.1342C161.812 20.4993 161.542 21.1382 161.542 21.7771V26.0667H161.78C162.157 26.0667 162.518 25.9755 162.863 25.5772L166.088 21.8932C166.736 21.1465 166.719 20.5076 166.358 20.1425V20.0512H168.795V20.1425C167.983 20.5076 167.228 21.2046 166.719 21.7854L162.838 26.1663C164.947 26.241 166.046 28.1908 166.875 29.8668C167.581 31.2857 168.213 32.4556 169.115 32.4556C169.476 32.4556 169.657 32.273 169.747 32.1818L169.837 32.273C169.566 32.7294 169.115 32.9119 168.393 32.9119C166.776 32.9036 165.874 31.1114 165.061 29.4354Z" fill="#111821"/>
<path d="M121.534 47.5567H120.836V42.912H121.534V46.6591L124.022 42.912H124.718V47.5567H124.022V43.8096L121.534 47.5567Z" fill="#111821"/>
<path d="M128.949 47.5567H128.252V42.912H131.935V47.5567H131.238V43.4151H128.949V47.5567Z" fill="#111821"/>
<path d="M133.916 44.4223L133.281 44.2204C133.487 43.284 134.131 42.819 135.202 42.819C135.792 42.819 136.228 42.9433 136.504 43.1833C136.787 43.4313 136.925 43.8028 136.925 44.3059V46.9843H137.69V47.5578H136.174L136.228 46.9692V46.3497L135.616 47.279C135.317 47.519 134.934 47.6426 134.475 47.6426C134.1 47.6426 133.802 47.5269 133.564 47.3019C133.327 47.0777 133.212 46.768 133.212 46.3655C133.212 46.0091 133.327 45.7223 133.564 45.5211C133.794 45.3199 134.062 45.1884 134.36 45.1345C134.659 45.0799 134.995 45.0023 135.378 44.9016C135.762 44.801 136.037 44.6774 136.228 44.5229V44.3289C136.228 43.6713 135.868 43.3458 135.157 43.3458C134.782 43.3458 134.506 43.4313 134.322 43.5937C134.146 43.764 134.008 44.0429 133.916 44.4223ZM133.962 46.2649C133.962 46.528 134.039 46.7371 134.184 46.8837C134.33 47.031 134.521 47.1007 134.751 47.1007C135.378 47.1007 135.876 46.7134 136.228 45.9394V44.6544C136.091 44.8247 135.876 44.9642 135.6 45.0878C135.325 45.2114 135.072 45.2969 134.835 45.3508C134.605 45.4054 134.398 45.5139 134.222 45.6605C134.046 45.8158 133.962 46.017 133.962 46.2649Z" fill="#111821"/>
<path d="M141.198 47.6504C140.761 47.6504 140.394 47.5189 140.088 47.2479C139.781 46.977 139.582 46.5896 139.483 46.0945V49.8875H138.786V42.9202H139.483V44.3676C139.59 43.8645 139.789 43.4851 140.088 43.222C140.387 42.959 140.754 42.8268 141.183 42.8268C141.719 42.8268 142.171 43.0359 142.546 43.4462C142.92 43.8645 143.104 44.4531 143.104 45.2271C143.104 46.0011 142.92 46.5975 142.546 47.023C142.178 47.4412 141.726 47.6504 141.198 47.6504ZM142.331 45.235C142.331 44.6234 142.193 44.1512 141.925 43.8257C141.65 43.5009 141.313 43.3305 140.899 43.3305C140.478 43.3305 140.134 43.493 139.881 43.8257C139.621 44.1512 139.498 44.6234 139.498 45.235C139.498 45.8465 139.628 46.3187 139.896 46.6593C140.164 47 140.509 47.1624 140.945 47.1624C141.343 47.1624 141.672 47 141.94 46.6673C142.201 46.3266 142.331 45.8545 142.331 45.235Z" fill="#111821"/>
<path d="M146.232 47.5567H145.535V43.4151H143.867V42.912H147.909V43.4151H146.24V47.5567H146.232Z" fill="#111821"/>
<path d="M149.595 47.5567H148.898V42.912H149.595V44.9401H151.953V42.912H152.649V47.5567H151.953V45.4359H149.595V47.5567Z" fill="#111821"/>
<path d="M158.162 45.7382C158.139 46.2261 157.94 46.6674 157.573 47.0619C157.205 47.4572 156.692 47.6505 156.041 47.6505C155.345 47.6505 154.801 47.4256 154.418 46.9843C154.036 46.543 153.837 45.9703 153.837 45.2739C153.837 44.5459 154.036 43.9494 154.442 43.501C154.847 43.0518 155.375 42.819 156.034 42.819C156.708 42.819 157.228 43.0281 157.596 43.4385C157.963 43.8488 158.155 44.4295 158.162 45.1654H154.625V45.289C154.625 45.8697 154.748 46.3267 154.992 46.6516C155.238 46.9771 155.59 47.1395 156.049 47.1395C156.876 47.1395 157.335 46.6746 157.427 45.7382H158.162ZM156.034 43.3299C155.643 43.3299 155.329 43.4543 155.085 43.7094C154.847 43.9573 154.702 44.3368 154.641 44.8319H157.358C157.358 44.4144 157.251 44.0579 157.029 43.7719C156.814 43.4694 156.485 43.3299 156.034 43.3299Z" fill="#111821"/>
<path d="M161.76 47.6504C161.324 47.6504 160.956 47.5189 160.65 47.2479C160.344 46.977 160.145 46.5896 160.045 46.0945V49.8875H159.349V42.9202H160.045V44.3676C160.153 43.8645 160.352 43.4851 160.65 43.222C160.949 42.959 161.316 42.8268 161.745 42.8268C162.281 42.8268 162.732 43.0359 163.108 43.4462C163.483 43.8645 163.667 44.4531 163.667 45.2271C163.667 46.0011 163.483 46.5975 163.108 47.023C162.732 47.4412 162.289 47.6504 161.76 47.6504ZM162.886 45.235C162.886 44.6234 162.748 44.1512 162.48 43.8257C162.204 43.5009 161.867 43.3305 161.454 43.3305C161.033 43.3305 160.688 43.493 160.435 43.8257C160.175 44.1512 160.053 44.6234 160.053 45.235C160.053 45.8465 160.183 46.3187 160.451 46.6593C160.719 47 161.064 47.1624 161.5 47.1624C161.898 47.1624 162.227 47 162.495 46.6673C162.756 46.3266 162.886 45.8545 162.886 45.235Z" fill="#111821"/>
<path d="M168.318 46.0166C168.318 46.4967 168.172 46.8682 167.881 47.1463C167.59 47.4252 167.123 47.5567 166.488 47.5567H164.849V42.912H165.546V44.6224H166.572C167.077 44.6224 167.491 44.7388 167.82 44.9789C168.149 45.2189 168.318 45.5596 168.318 46.0166ZM167.613 46.0166C167.613 45.4201 167.215 45.1262 166.419 45.1262H165.546V47.0615H166.404C166.832 47.0615 167.138 46.976 167.33 46.8136C167.522 46.6354 167.613 46.3723 167.613 46.0166ZM169.849 47.5567H169.152V42.912H169.849V47.5567Z" fill="#111821"/>
</svg>
