<svg width="660" height="541" viewBox="0 0 660 541" fill="none" xmlns="http://www.w3.org/2000/svg">
<g clip-path="url(#clip0_813_725)">
<rect width="660" height="541" fill="#111821"/>
<path d="M639.562 97.6405C641.244 117.785 638.859 138.416 631.541 159.223C624.504 180.619 609.939 201.256 588.129 221.724C566.598 242.781 537.565 261.622 501.312 278.838C472.075 292.721 440.32 301.301 406.886 306.345L404.927 302.22C433.124 298.219 459.921 291.271 484.48 279.609C581.546 233.516 607.158 160.691 560.426 62.2802C537.48 13.9586 505.842 -17.9589 464.647 -33.7857C424.319 -49.2968 382.518 -46.7808 339.832 -26.511C310.595 -12.6275 289.077 -2.35963 266.533 8.4625L265.317 6.70885C271.469 3.0658 278.486 -0.2663 286.977 -5.01999C320.915 -22.5844 339.042 -31.1923 340.212 -31.7475C415.643 -67.5668 478.393 -74.2533 528.183 -52.4006C571.362 -33.906 602.743 -4.03337 622.331 37.2171C631.845 57.2526 637.88 77.4967 639.562 97.6405Z" fill="url(#paint0_linear_813_725)"/>
<path d="M110.646 190.655C130.397 203.887 152.971 213.215 178.543 217.572C204.561 222.554 234.096 219.363 267.594 208.625C301.538 198.511 337.488 179.419 375.89 151.974C406.859 129.841 433.813 102.09 458.09 70.5942L455 68.5C434.785 95.2066 412.308 116.517 386.294 135.108C283.477 208.59 193.976 193.34 119.476 89.0986C82.8951 37.914 68.1438 -12.8406 75.3936 -64.2334C82.4735 -114.556 108.929 -156.097 154.144 -188.412C185.113 -210.545 213.457 -223.257 241.556 -231.076L230.848 -246.058C223.59 -241.813 216.157 -236.5 206.421 -230.484C168.982 -205.619 149.781 -191.897 148.543 -191.012C68.6425 -133.908 25.9366 -73.2073 19.9749 -9.53679C14.3351 45.4194 27.1307 94.7421 58.3585 138.437C73.5259 159.659 90.8944 177.424 110.646 190.655Z" fill="url(#paint1_linear_813_725)"/>
</g>
<defs>
<linearGradient id="paint0_linear_813_725" x1="529.5" y1="289" x2="829.142" y2="-125.057" gradientUnits="userSpaceOnUse">
<stop stop-color="#1C272E"/>
<stop offset="0.890625" stop-color="#10161E"/>
</linearGradient>
<linearGradient id="paint1_linear_813_725" x1="287.5" y1="208.001" x2="-79.666" y2="154.621" gradientUnits="userSpaceOnUse">
<stop stop-color="#1C272E"/>
<stop offset="0.890625" stop-color="#10161E"/>
</linearGradient>
<clipPath id="clip0_813_725">
<rect width="660" height="541" fill="white"/>
</clipPath>
</defs>
</svg>
