<svg width="660" height="541" viewBox="0 0 660 541" fill="none" xmlns="http://www.w3.org/2000/svg">
<g clip-path="url(#clip0_813_731)">
<rect width="660" height="541" fill="#111821"/>
<path d="M324.016 188.608C335.467 209.443 351.219 228.11 371.92 243.743C392.729 260.135 420.421 270.889 455.104 276.765C489.896 283.401 530.599 282.988 577.321 276.286C615.001 270.881 651.7 258.641 687.745 241.844L686.982 236.528C656.748 250.941 625.968 261.557 594.318 266.097C469.222 284.042 396.77 229.327 378.577 102.498C369.644 40.2228 379.895 -11.6283 409.975 -53.9247C439.412 -95.3485 482.012 -120.063 537.024 -127.954C574.704 -133.359 602.468 -137.288 631.599 -141.342L631.65 -143.851C623.252 -143.421 614.208 -142.123 602.796 -141.261C558.116 -136.406 534.754 -133.055 533.247 -132.839C436.034 -118.894 370.191 -84.6448 335.607 -30.8545C305.317 15.3464 293.988 65.0265 301.613 118.189C305.317 144.01 312.566 167.773 324.016 188.608Z" fill="url(#paint0_linear_813_731)"/>
<path d="M211.419 97.463C219.405 75.0705 222.915 50.8981 220.87 25.0386C219.321 -1.40645 208.987 -29.258 190.365 -59.1016C172.238 -89.5306 144.916 -119.704 108.895 -150.205C79.8453 -174.804 46.3336 -194.132 9.84709 -209.948L8.5744 -206.438C39.4216 -193.387 65.5918 -176.82 89.9931 -156.158C186.438 -74.4912 193.594 16.0172 110.796 113.798C70.1413 161.81 24.5517 188.554 -27.0502 194.124C-77.5724 199.596 -124.332 184.132 -166.745 148.218C-195.794 123.62 -215.067 99.2572 -229.535 73.9325L-241.436 87.9861C-235.54 93.9825 -228.568 99.8863 -220.349 107.851C-187.065 138.051 -169.054 153.302 -167.892 154.286C-92.9439 217.749 -23.6261 244.272 39.563 234.443C94.2248 226.438 138.906 201.942 173.612 160.956C190.468 141.048 203.433 119.855 211.419 97.463Z" fill="url(#paint1_linear_813_731)"/>
</g>
<defs>
<linearGradient id="paint0_linear_813_731" x1="473.065" y1="285.369" x2="171.616" y2="69.0619" gradientUnits="userSpaceOnUse">
<stop stop-color="#1C272E"/>
<stop offset="0.890625" stop-color="#10161E"/>
</linearGradient>
<linearGradient id="paint1_linear_813_731" x1="156" y1="65.5" x2="119.316" y2="317.377" gradientUnits="userSpaceOnUse">
<stop stop-color="#1C272E"/>
<stop offset="0.890625" stop-color="#10161E"/>
</linearGradient>
<clipPath id="clip0_813_731">
<rect width="660" height="541" fill="white"/>
</clipPath>
</defs>
</svg>
